<?xml version="1.0" encoding="UTF-8"?>
<svg id="_レイヤー_2" data-name="レイヤー 2" xmlns="http://www.w3.org/2000/svg" viewBox="0 0 180 180">
  <defs>
    <style>
      .cls-1 {
        fill: #fff;
      }

      .cls-2 {
        fill: #040000;
      }
    </style>
  </defs>
  <g id="_レイヤー_1-2" data-name="レイヤー 1">
    <rect class="cls-1" width="180" height="180"/>
    <path id="_パス_34667" data-name="パス 34667" class="cls-2" d="M85.43,61.33c.03.57-.17,1.13-.56,1.55-.42.39-.98.59-1.55.56h-41.88c-.34-.05-.65.19-.7.53,0,.06,0,.12,0,.18v13.21c-.05.34.19.65.53.7.06,0,.12,0,.18,0h26c.57-.03,1.13.17,1.55.56.39.42.59.98.56,1.55v18.27c.03.57-.17,1.13-.56,1.55-.42.39-.98.59-1.55.56h-26c-.34-.05-.65.19-.7.53,0,.06,0,.12,0,.18v35.84c.09,1.07-.7,2.01-1.77,2.11-.11,0-.23,0-.34,0h-22.21c-.57.03-1.13-.17-1.55-.56-.39-.42-.59-.98-.56-1.55V42.92c-.03-.57.17-1.13.56-1.55.42-.39.98-.59,1.55-.56h66.9c.57-.03,1.13.17,1.55.56.39.42.59.98.56,1.55v18.41ZM126.89,140.31c-7.68,0-14.45-1.5-20.31-4.5-5.68-2.83-10.41-7.25-13.63-12.72-3.23-5.48-4.85-11.83-4.85-19.04v-28.39c0-7.12,1.62-13.4,4.85-18.83,3.24-5.44,7.97-9.83,13.63-12.65,5.86-3,12.63-4.5,20.31-4.5s14.45,1.41,20.31,4.22c5.59,2.57,10.32,6.7,13.63,11.88,3.23,5.11,4.85,11.03,4.85,17.78,0,.84-.7,1.36-2.11,1.55l-22.2,1.41h-.42c-1.12,0-1.69-.52-1.69-1.55,0-3.84-1.12-6.91-3.37-9.21-2.25-2.3-5.25-3.44-8.99-3.44-3.75,0-6.75,1.15-8.99,3.44-2.25,2.3-3.37,5.36-3.37,9.21v30.22c0,3.75,1.12,6.77,3.37,9.06,2.25,2.3,5.25,3.44,8.99,3.44s6.75-1.15,8.99-3.44c2.25-2.3,3.37-5.32,3.37-9.06-.03-.49.18-.96.56-1.26.46-.3,1.01-.4,1.55-.28l22.21,1.12c1.41.09,2.11.56,2.11,1.41,0,6.75-1.62,12.7-4.85,17.85-3.31,5.22-8.04,9.39-13.63,12.02-5.86,2.86-12.63,4.29-20.31,4.29Z"/>
  </g>
</svg>