<svg viewBox="0 0 180 180" xmlns="http://www.w3.org/2000/svg"><path d="m0 0h180v180h-180z" fill="#fff"/><g fill="#231815"><path d="m62.4 45.31c-2.35 4.37-5.52 7.25-7.15 8.69l-3.46-4.99-.43.86c-.82-.82-1.54-1.63-2.83-3.31v9.07h-6.48v-10.18c-2.78 4.85-5.04 7.39-6.48 8.98l-3.7-6.96c2.26-1.78 4.18-3.55 7.73-8.31h-6.77v-6.34h9.22v-4.42h6.48v4.42h6.24v6.34h-5.76c2.16 2.21 4.03 3.46 5.23 4.22l-1.92 4.42c4.71-3.36 7.3-7.63 7.87-8.64h-3.74v-6.34h5.95v-4.42h6.62v4.42h9.46v6.34h-7.2c3.79 5.18 6.62 6.96 8.11 7.92l-4.08 7.3c-1.15-1.2-3.98-4.13-6.29-8.93v10.18h-6.62zm-29.09-21.55c2.83-.62 8.98-1.97 13.01-4.42h-11.43v-6.38h17.38v-2.93h6.91v2.93h17.33v6.38h-11.14c1.78 1.1 4.18 2.45 12.67 4.46l-3.46 6.58c-6.19-2.02-10.75-4.46-15.41-8.78v8.59h-6.91v-8.16c-5.81 4.75-13.01 7.34-15.6 8.26l-3.36-6.53z"/><path d="m100.85 38.54c3.17-3.31 5.28-6.48 7.87-13.73h-7.1v-6.77h7.44v-8.02h6.86v8.02h6.62v6.77h-6.62v.34c2.69 4.13 6.1 7.25 7.83 8.74l-4.03 5.62c-2.26-2.69-2.74-3.55-3.79-5.33v21.46h-6.86v-18.29c-2.02 4.9-4.32 8.16-5.52 9.84l-2.69-8.64zm18.33 3.46c5.33-4.61 9.36-10.51 12.14-16.99v-.19h-6.67v-6.77h6.67v-8.02h6.96v8.02h8.88v6.77h-8.64c.91 2.45 3.94 9.89 9.6 16.03l-3.84 7.78c-3.7-5.62-4.9-8.59-6-11.57v18.58h-6.96v-18.72c-1.97 4.27-3.89 7.3-8.35 12.38z"/><path d="m32.01 74.95c3.55-2.11 6.19-5.18 7.87-8.26l6.72 2.06c-3.46 6.29-7.63 10.85-11.71 13.49l-2.88-7.3zm14.98-5.71c10.99.34 23.14-1.34 27.17-2.59l3.31 5.81c-1.97.48-4.51 1.1-9.26 1.58v3.07h10.18v5.71h-10.18v2.4h8.45v27.31h-6.53v-1.49h-9.7v1.49h-6.34v-27.31h7.3v-2.4h-7.92v4.85c0 5.28-.86 18.48-5.18 24.72l-4.66-5.62v5.76h-6.91v-16.85c-1.1 1.06-1.73 1.54-2.64 2.26l-2.02-8.83c3.89-2.5 7.87-8.45 9.46-11.33l5.47 2.59v-11.14zm0 12.77c-.62 1.15-1.39 2.69-3.36 5.57v17.91c1.01-2.06 3.36-6.86 3.36-20.11v-3.36zm6.48-4.9h7.92v-2.45c-3.55.29-5.95.38-7.92.43zm6.96 13.06v2.26h9.7v-2.26zm0 6.72v2.3h9.7v-2.3zm0 6.67v2.59h9.7v-2.59z"/><path d="m109.87 106.2c-2.64.91-5.33 1.68-8.02 2.35l-.67-7.63c1.06-.14 1.97-.24 3.94-.72v-9.98h-2.83v-6.67h2.83v-7.92h-3.26v-6.72h13.1v6.72h-3.17v7.92h2.4v6.67h-2.4v8.35c1.68-.43 2.4-.67 3.26-.96l.24 6c4.27-1.68 6.43-3.41 7.63-4.32h-5.95v-10.75h28.18v10.75h-.72l3.12 2.11c-1.25 1.25-1.63 1.58-4.03 3.6 2.11.96 3.07 1.3 4.03 1.63l-3.31 6.14c-7.87-3.5-10.95-6.67-12.96-8.98v8.78h-6.91v-6.96c-4.75 3.55-9.17 5.42-11.19 6.29l-3.31-5.71zm37.3-24.43v5.28h-32.31v-5.28zm-1.01-13.54v12.1h-29.91v-12.1zm-23.81 4.56v3.17h2.78v-3.17zm1.2 19.83v2.59h14.93v-2.59zm6.15-19.83v3.17h2.83v-3.17zm4.56 26.5c.77.67 1.87 1.54 4.03 2.88 1.54-1.3 2.26-1.97 3.17-2.88zm2.78-26.5v3.17h3.07v-3.17z"/><path d="m32.59 144.38c1.78 0 2.26 0 3.12-.05 1.39-1.73 1.87-2.4 2.21-2.83-2.35-3.07-4.27-4.61-5.76-5.76l3.02-6.29c.67.48.86.67 1.2.96.67-1.25 1.78-3.41 2.93-6.58l5.95 1.39c-2.11 4.27-4.18 7.68-4.99 8.88.48.53.96 1.01 1.58 1.78.82-1.2 1.87-2.88 4.22-7.01l5.57 2.3c-2.59 4.61-5.71 8.83-9.17 12.82 1.34-.1 1.97-.1 3.6-.24-.29-1.15-.48-1.82-.86-2.93l4.18-1.39c.29.82.53 1.49 1.15 3.36.38-.1 4.13-.91 7.97-2.69-3.12-2.88-4.18-4.75-5.14-6.43l4.66-1.68h-6.29v-6.62h25.2v6.62c-.62 1.34-1.73 3.55-6.62 7.82 3.74 1.39 6.67 1.92 9.02 2.26l-2.78 6.77c-2.69-.67-7.15-1.92-12.24-4.7-4.9 3.02-8.64 4.08-10.61 4.61l-2.88-4.94c.58 2.21.91 3.55 1.2 5.9l-4.51 1.39c-.14-.86-.14-1.2-.29-1.78-.48.05-.82.1-1.63.24v20.02h-5.62v-19.35c-3.22.34-4.7.48-6.72.62l-.67-6.48zm6.19 8.4c-.48 10.42-1.1 12.72-1.68 14.45l-4.85-3.17c1.25-3.79 1.63-9.36 1.73-11.86zm11.52 10.18-2.83.48c.1-2.93-.24-7.58-.86-10.75l4.13-.86c.91 4.18 1.1 8.88 1.15 9.46h8.98v-3.98h-8.21v-6.53h8.21v-3.5h6.96v3.5h8.98v6.53h-8.98v3.98h10.46v6.82h-27.99v-5.14zm9.03-30.96c1.97 2.54 4.32 4.22 5.04 4.75 2.93-2.16 3.79-3.36 4.75-4.75z"/><path d="m114.67 152.78c-1.97 5.23-5.81 12.62-9.12 16.9l-4.61-6.48c4.42-5.81 7.15-12.29 8.11-14.55zm-9.94-16.51c4.37 2.21 6.53 3.79 8.16 5.14l-4.27 5.81c-2.64-2.35-4.32-3.55-7.58-5.33l3.7-5.62zm17.91 26.02c-1.49 4.75-3.7 6.82-4.61 7.68l-6.19-4.27c3.12-2.69 4.75-7.25 4.75-11.57v-6.96c-.24.05-.38.05-1.68.24l-2.06-6.58c1.92-.14 5.76-.48 10.9-1.73-.82-.72-2.74-2.45-4.9-5.81h-4.46v-4.22l-4.18 5.81c-2.69-2.26-3.84-2.88-8.02-5.14l3.84-5.57c2.11.82 6.67 3.31 8.35 4.7v-1.82h12.62v-2.83h7.2v2.83h12.67v6.24h-4.13c-.77 1.25-2.16 3.5-5.28 6 2.16.58 4.9 1.2 10.32 1.49l-2.11 6.67c-.62-.05-.72-.05-1.73-.19v22.42h-7.15v-7.39h-14.16zm14.16-13.92v-1.58h4.03c-5.81-1.06-9.26-2.78-10.61-3.41-1.97.86-5.62 2.3-11.42 3.41h4.9v1.58zm0 8.16v-2.64h-13.1v.77c0 .96-.05 1.39-.05 1.87zm-10.56-23.24c1.97 1.87 3.5 2.78 4.42 3.31 2.35-1.25 3.26-2.21 4.27-3.31z"/></g></svg>