<?xml version="1.0" encoding="UTF-8"?><svg id="_レイヤー_2" xmlns="http://www.w3.org/2000/svg" viewBox="0 0 373.29 33.27"><defs><style>.cls-1{fill:#040000;}</style></defs><g id="_レイヤー_1-2"><path id="_パス_34638" class="cls-1" d="M49.85,27.41c.96,1.04,1.74,2.24,2.31,3.54,2.24-1.55,4.11-3.59,5.47-5.96-.07,1.09-.1,1.65-.1,2.07v2.84c.03,1.04-.03,2.09-.17,3.12h4.56c-.15-1-.21-2.01-.17-3.02v-3.12c0-.42-.1-1.72-.14-2.07,1.38,2.41,3.25,4.5,5.5,6.13.6-1.48,1.44-2.86,2.49-4.07-2.74-1.39-5.11-3.44-6.88-5.96h2.56c1.1-.03,2.21.03,3.3.18v-4.31c-1.1.15-2.22.21-3.33.17h-3.51v-.67c-.03-.76.02-1.53.14-2.28h-4.49c.12.75.16,1.52.14,2.28v.67h-1.62c-1.09.04-2.18-.02-3.26-.17v4.28c1-.12,2.01-.16,3.01-.14h.88c-1.72,2.52-3.96,4.64-6.56,6.24.53-1,1.15-1.95,1.86-2.84-1.52-.87-2.87-2.02-3.96-3.4h.74c1.01-.02,2.01.02,3.01.14v-4.28c-1.06.15-2.12.21-3.19.17h-1.4v-.67c-.02-.76.02-1.53.14-2.28h-4.45c.11.77.16,1.54.14,2.31v.63h-2.84c-1.12.04-2.25-.02-3.37-.17v4.31c1.08-.15,2.17-.21,3.26-.18h1.96c-1.51,2.57-3.6,4.75-6.1,6.38.98,1.13,1.78,2.4,2.35,3.78,2.01-1.53,3.67-3.48,4.84-5.71-.07.74-.11,1.51-.11,2.07v2.77c.02.94-.03,1.87-.18,2.8h4.52c-.15-.99-.2-1.98-.18-2.98v-3.22c0-.76-.04-1.52-.14-2.28.65,1.31,1.54,2.49,2.63,3.47l.32-.59ZM54.58,3.05c-.04-.88.02-1.76.17-2.63h-4.8c.15.87.21,1.75.17,2.63h-7.89c-1.42.02-2.83-.05-4.24-.21v4.35c1.41-.16,2.83-.23,4.24-.21h4.77c-3.04,2.22-6.54,3.76-10.24,4.48.93,1.12,1.66,2.39,2.17,3.75,5.43-1.89,8.17-3.4,11.32-6.34-.08.48-.11.96-.1,1.44v2.91c0,.81-.06,1.62-.18,2.42h4.73c-.15-.81-.21-1.63-.17-2.45v-2.94c0-.32-.02-.63-.07-.95-.03-.15-.04-.3-.03-.46,1.64,1.49,3.47,2.76,5.43,3.79,2.08,1.14,4.28,2.05,6.55,2.73.55-1.45,1.29-2.82,2.21-4.07-4.73-.94-8.03-2.31-10.62-4.31h5.08c1.42-.01,2.83.06,4.24.21V2.84c-1.41.16-2.82.23-4.24.21h-8.52ZM96.93,6.59v-2.56c-.01-1.21.06-2.41.21-3.61h-4.87c.15,1.2.22,2.4.21,3.61v2.56h-1.75c-1.23,0-2.45-.07-3.51-.17v4.56c1.09-.1,2.24-.17,3.47-.17h1.19c-.6,1.9-1.38,3.74-2.31,5.5-1.47,2.96-3.49,5.62-5.96,7.82,1.14,1.16,2.09,2.5,2.8,3.96,2.74-2.83,4.84-6.21,6.17-9.92q-.03.56-.1,1.51c0,.17-.07,2.03-.07,2.35v6.8c0,1.41-.06,2.81-.21,4.21h4.91c-.19-1.39-.27-2.8-.24-4.21v-7.33c-.07-1.61-.14-2.84-.21-3.68,1.26,3.48,3.16,6.69,5.61,9.47.71-1.61,1.66-3.11,2.8-4.45-3.58-3.27-6.25-7.41-7.75-12.02h2.45c1.38-.02,2.76.05,4.14.21v-4.63c-1.41.16-2.82.23-4.24.21h-2.73ZM83.15,10.8c1.12,0,2.21.07,3.26.17v-4.56c-1.11.12-2.22.18-3.33.17h-.95v-2.77c-.01-1.14.06-2.27.21-3.4h-4.84c.16,1.15.23,2.31.21,3.47v2.7h-1.4c-1.36.02-2.72-.05-4.07-.21v4.63c1.31-.16,2.64-.23,3.96-.21h1.09c-1.23,3.93-3.31,7.53-6.1,10.55,1.02,1.35,1.84,2.84,2.45,4.42,1.93-2.34,3.39-5.03,4.31-7.92-.1,1.19-.21,3.23-.21,4.38v6.38c.03,1.48-.05,2.95-.25,4.42h4.84c-.16-1.47-.23-2.94-.21-4.42v-7.71c0-2.45-.03-3.4-.14-4.63.68,1.81,1.64,3.5,2.84,5.01.7-1.36,1.64-2.58,2.77-3.61-2.13-1.96-3.89-4.28-5.19-6.87h.73ZM136.01.14c-1.44.56-2.95.94-4.49,1.12-4.26.67-8.56,1.01-12.86,1.02-.46.01-.91-.01-1.37-.07.21,2.01.32,4.04.32,6.06,0,1.61-.07,3.4-.21,6.45-.04,2.88-.32,5.75-.84,8.59-.39,2.17-1.12,4.26-2.17,6.2v-14.44c.77-1.05,1.37-1.89,2.03-2.98.2-.37.42-.74.67-1.09l-3.44-2.66c-.51,1.1-1.13,2.15-1.86,3.12-1.57,2.19-3.47,4.12-5.64,5.71.81,1.42,1.43,2.94,1.82,4.52.79-.63,1.49-1.36,2.1-2.17-.04,2.28-.04,3.58-.04,3.96v5.78c.02,1.27-.05,2.53-.21,3.79h4.66c-.07-.98-.11-1.72-.11-3.26,1.28.98,2.39,2.15,3.3,3.47,1.58-2.89,2.62-6.03,3.08-9.29.61-4.14.93-8.33.94-12.51h5.4c-.11.67-.11.7-.35,1.86h-2.63c-.71.01-1.43-.02-2.14-.1.15,1.29.21,2.59.18,3.89v12.06c.02,1.3-.04,2.6-.18,3.89h4.35v-1.3h7.54v1.3h4.38c-.14-1.44-.2-2.9-.18-4.35v-11.88c-.02-1.21.02-2.41.14-3.61-1.05.07-2.07.1-3.47.1h-3.72c.18-.77.25-1.05.39-1.86h4.38c1.65,0,2.35.03,3.65.14v-4.14c-1.22.15-2.45.21-3.68.17h-3.79q.14-.95.32-2.45c1.86-.25,3.12-.42,6.45-1.02l-2.73-4.03ZM121.75,7.64v-1.54c2.73-.14,3.58-.17,6.03-.39-.04.39-.11,1.4-.14,1.93h-5.89ZM126.37,16.96h7.5v1.61h-7.5v-1.61ZM126.37,21.7h7.5v1.65h-7.5v-1.65ZM126.37,26.46h7.5v1.65h-7.5v-1.65ZM113.68.03c-1.74,2.81-4.21,5.1-7.15,6.62.96,1.19,1.72,2.52,2.24,3.96,2.8-1.76,5.29-3.94,7.4-6.49q.84-1.05,1.16-1.4L113.68.03ZM171.11,22.85c1.16.03,1.82.07,2.03.1-.08-.69-.12-1.38-.1-2.07v-3.15c0-.74.03-1.47.1-2.21-.77.07-1.82.1-3.26.1h-12.83c-1.26,0-2.17-.03-3.05-.1.08.73.12,1.47.11,2.21v3.02c.02.74-.02,1.48-.11,2.21.93-.08,1.87-.12,2.8-.1h2.45c-2.28,2.52-4.91,4.1-9.96,6.03,1.15,1.08,2.09,2.36,2.77,3.79,4.24-2.14,6.1-3.43,8.52-6.03-.07,1.19-.11,1.86-.11,2.07v1.72c.03.94-.03,1.87-.18,2.8h4.66c-.14-.86-.2-1.73-.18-2.59v-1.61c0-.91-.04-1.16-.1-2.28.95,1.21,2.07,2.27,3.33,3.15,1.72,1.2,3.6,2.16,5.57,2.87.63-1.45,1.35-2.86,2.17-4.21-1.64-.36-3.23-.91-4.73-1.65.72-.52,1.4-1.1,2.03-1.72.46-.42.6-.56.88-.81l-2.83-1.54ZM169.99,22.85c-.71.77-1.49,1.46-2.35,2.07-.87-.56-1.64-1.26-2.28-2.07h4.63ZM158.42,18.47h10.24v1.44h-10.24v-1.44ZM145.8,5.95v6.24c-.82.02-1.64-.03-2.45-.14v4.21c.81-.11,1.63-.16,2.45-.14v7.22c-1.17.47-2.4.8-3.65.98l.98,4.73c.46-.21,1.12-.49,1.86-.77,2.81-1.01,5.56-2.18,8.24-3.51v-4.31c-1.65.74-2.21.98-3.05,1.3v-5.64c.6,0,1.19.03,1.79.1v-4.14c-.59.09-1.19.12-1.79.1v-6.24h.32c.66,0,1.31.07,1.96.17V1.75c-1.04.12-2.08.18-3.12.17h-3.43c-1.03,0-2.06-.06-3.08-.17v4.38c.8-.12,1.61-.18,2.42-.17h.56ZM153.34,7.11c.02.84-.02,1.69-.11,2.52.88-.07,1.44-.07,2.8-.07h15.25c1.44,0,1.82,0,2.73.07-.07-.77-.1-1.72-.1-2.52v-3.4c0-.85.04-1.71.14-2.56-1.26.1-2.1.14-2.84.14h-15.21c-.92,0-1.85-.04-2.77-.14.09.86.12,1.73.11,2.59v3.36ZM159.16,6.65h-2.1v-2.13h2.1v2.13ZM164.62,6.65h-2.1v-2.13h2.1v2.13ZM170.06,6.65h-2.1v-2.13h2.1v2.13ZM152.71,14.61c1.13-.14,2.26-.2,3.4-.17h15.53c1.12-.02,2.25.04,3.37.17v-4.03c-1.13.14-2.26.2-3.4.17h-15.5c-1.14.03-2.27-.03-3.4-.17v4.03ZM180.51,15.03c-.8.04-1.59,0-2.38-.1l.42,4.24c.49-.07.81-.1,1.44-.17q2.28-.1,3.58-.21v10.52c.04,1.27-.03,2.53-.21,3.79h4.45c-.18-1.25-.25-2.52-.21-3.79v-10.87c.81-.1.98-.1,2.1-.28.14.63.18.84.35,1.58l3.01-1.33c-.74-2.6-1.69-5.13-2.84-7.57l-2.59,1.12c.56,1.4.74,1.89,1.05,2.73-1.47.14-2.31.21-3.26.25,1.09-1.4,3.12-4.28,4.14-5.89.62-1.12,1.33-2.2,2.1-3.23l-3.57-2.07c-.89,2.09-1.98,4.08-3.26,5.96q-.7-.88-1.05-1.26c.97-1.42,1.83-2.91,2.59-4.45.38-.85.81-1.67,1.3-2.45l-4.07-1.54c-.57,1.94-1.39,3.8-2.42,5.54-.46-.46-.84-.88-1.23-1.26l-2.03,3.64c1.69,1.62,3.21,3.41,4.56,5.33-.4.62-.83,1.22-1.3,1.79h-.66ZM202.72,27.9v-4.07h2.77c1.16,0,2.32.06,3.47.18v-4.42c-1.15.12-2.31.18-3.47.17h-2.77v-.42c-.03-1.07.03-2.13.18-3.19h-4.8c.16,1.06.22,2.12.18,3.19v.42h-1.82c-1.21.03-2.41-.03-3.61-.17v4.42c1.2-.13,2.4-.19,3.61-.18h1.82v4.07h-3.79c-1.12,0-1.51,0-2.24-.03-.18-2.66-.5-5.3-.98-7.92l-2.8.7c.41,2.89.64,5.81.7,8.73l1.96-.53v3.3c1.34-.15,2.68-.22,4.03-.21h11.25c1.35-.02,2.69.05,4.03.21v-4.42c-1.31.15-2.64.21-3.96.18h-3.75ZM206.97,1.44c-.92.11-1.84.16-2.77.14h-8.24c-1.36.03-2.72-.04-4.07-.21v4.45c.93-.11,1.86-.16,2.8-.14h.95l-2.52,1.47c1.08,1.55,2.32,2.97,3.72,4.24-1.68.9-3.46,1.6-5.29,2.1,1.05,1.2,1.92,2.55,2.59,4,2.23-.85,4.35-1.96,6.31-3.33,2.7,1.72,5.66,2.99,8.76,3.75.38-1.59.99-3.11,1.82-4.52-2.45-.37-4.83-1.09-7.08-2.14,1.03-.98,1.98-2.05,2.84-3.19.39-.53,1.4-2.03,2.77-4.17l-2.59-2.46ZM203.32,5.68c-.86,1.26-1.9,2.4-3.09,3.36-1.28-.97-2.42-2.1-3.4-3.36h6.49ZM179.27,20.15c.05,3.29-.38,6.58-1.26,9.75l3.37,1.51c.77-3.51,1.16-7.1,1.16-10.69l-3.26-.56ZM212.93,12.65c2.26,1.28,4.36,2.83,6.24,4.63l2.17-3.19c.49.98.84,2.01,1.05,3.09,1.05-.17,1.44-.25,2.17-.39,0,3.75-.35,6.59-1.09,8.38-.78,1.9-2.08,3.54-3.75,4.73,1.43.82,2.67,1.95,3.61,3.3,2.03-1.73,3.54-3.99,4.38-6.52h9.89v2.07c.01,1.41-.06,2.81-.21,4.21h4.8c-.18-1.38-.25-2.78-.21-4.17v-12.03c.77.17,1.26.28,2.66.53.31-1.48.9-2.89,1.75-4.14-2.98-.26-5.93-.87-8.76-1.82,1.63-1.23,3.04-2.72,4.17-4.42h.24c1.19-.03,2.39.03,3.58.17V2.83c-1.31.16-2.64.23-3.96.21h-6.1v-.46c-.02-.76.04-1.53.18-2.28h-4.87c.12.77.18,1.54.18,2.31v.42h-4.66c-1.28.04-2.56-.03-3.82-.21v1.62c-1.74-1.49-3.61-2.83-5.57-4l-2.84,3.37c2.2,1.3,4.23,2.88,6.03,4.7l2.38-3.01v1.58c.88-.12,1.77-.18,2.66-.17,1.24,1.72,2.74,3.24,4.45,4.49-2.69.95-5.5,1.52-8.34,1.68-1.78-1.48-3.69-2.8-5.71-3.93l-2.7,3.5ZM228.95,16.89q0-.46.04-1.19c1.6-.46,3.15-1.07,4.63-1.82,1.29.64,2.63,1.2,4,1.65v1.37h-8.66ZM237.61,20.68v2.17h-9.08c.1-.84.14-1.19.24-2.17h8.83ZM236.52,6.9c-.87,1.04-1.9,1.94-3.05,2.66-1.27-.65-2.39-1.56-3.3-2.66h6.35ZM217.97,18.61c-.79,3.11-1.97,6.12-3.51,8.94-.39.72-.86,1.39-1.4,2l3.92,3.4c2.02-3.69,3.58-7.61,4.66-11.67l-3.68-2.66Z"/><path id="_パス_34639" class="cls-1" d="M255.48,8.89h2.91c.68-.01,1.36.02,2.03.1v-2.23c-.67.08-1.35.11-2.03.1h-2.91v-2.7h3.62c.68-.01,1.36.02,2.03.1V1.97c-.68.08-1.36.11-2.04.1h-4.13c-.98,0-1.36-.01-1.93-.04.09.64.12,1.29.11,1.94v7.53c.01.7-.03,1.4-.13,2.1h2.58c-.09-.7-.13-1.42-.11-2.13v-2.6ZM268.72,1.83c-3.35,0-5.51,2.34-5.51,5.99s2.16,6.04,5.51,6.04,5.5-2.4,5.5-6.06c.08-1.66-.51-3.28-1.63-4.5-1.03-1.01-2.43-1.54-3.87-1.47ZM268.74,11.81c-1.9,0-3.09-1.55-3.09-4.01s1.19-3.92,3.08-3.92c.75-.02,1.48.27,2.01.8.75.87,1.13,2,1.05,3.15,0,2.47-1.16,3.99-3.05,3.99ZM286.9,13.61c-.45-.95-.61-1.28-.91-2-1.18-2.82-1.43-3.19-2.34-3.48.55-.11,1.07-.38,1.48-.77.55-.6.83-1.4.78-2.21,0-1.94-1.28-3.08-3.5-3.08h-3.54c-.87,0-1.36-.01-1.96-.04.08.65.12,1.3.11,1.96v7.63c.01.66-.02,1.33-.11,1.99h2.55c-.09-.66-.13-1.33-.11-2v-2.62h1.79c.48-.03.94.16,1.26.51.44.55.77,1.18.97,1.86.31.73.55,1.48.71,2.26h2.82ZM279.35,6.99v-2.94h2.58c1.02,0,1.55.47,1.55,1.39.04.81-.58,1.51-1.39,1.55-.07,0-.13,0-.2,0h-2.54ZM297.81,11.45c-.65.08-1.3.11-1.96.1h-4.06v-2.88h3.25c.66-.01,1.33.02,1.99.1v-2.21c-.66.07-1.32.11-1.99.1h-3.24v-2.54h3.87c.66-.01,1.32.02,1.97.1V1.98c-.65.07-1.31.1-1.97.1h-4.4c-.98,0-1.35-.01-1.93-.04.08.64.12,1.29.11,1.94v7.7c.01.66-.02,1.32-.12,1.98.58-.03.98-.04,1.94-.04h4.54c.66-.01,1.32.02,1.97.1v-2.26ZM300.15,10.18c.04.81.33,1.59.82,2.23,1.03,1.06,2.49,1.6,3.96,1.46,2.84,0,4.46-1.32,4.46-3.63.02-.6-.13-1.2-.43-1.72-.34-.55-.84-.98-1.43-1.23-.9-.35-1.84-.61-2.8-.77-.47-.07-.92-.23-1.33-.47-.31-.21-.49-.55-.48-.92,0-.81.74-1.35,1.85-1.35.59-.04,1.16.18,1.58.6.21.26.34.58.37.91l2.5-.27c-.1-.63-.35-1.22-.72-1.73-.93-1.05-2.3-1.6-3.7-1.48-2.62,0-4.28,1.32-4.28,3.4-.03.99.43,1.92,1.22,2.51.67.44,1.42.73,2.21.85.85.11,1.67.38,2.43.78.36.21.57.61.55,1.02,0,.91-.78,1.48-2.01,1.48-.71.05-1.41-.23-1.89-.77-.25-.33-.39-.73-.38-1.15l-2.47.24ZM317.59,4.16h1.7c.72-.01,1.43.02,2.14.1V1.98c-.71.08-1.43.11-2.14.1h-5.9c-.67,0-1.35-.02-2.01-.1v2.28c.67-.08,1.35-.11,2.03-.1h1.8v7.46c.01.66-.03,1.33-.11,1.99h2.61c-.09-.66-.12-1.32-.11-1.99v-7.46ZM262.99,24.58c-.14-.64-.42-1.24-.82-1.76-.98-1.22-2.49-1.89-4.04-1.79-1.37-.06-2.7.42-3.72,1.33-1.2,1.24-1.84,2.93-1.76,4.65-.08,1.67.5,3.31,1.6,4.57,1.05,1,2.47,1.53,3.92,1.46,1.47.09,2.9-.47,3.9-1.55.54-.68.91-1.48,1.06-2.34l-2.47-.4c-.04.45-.19.88-.44,1.26-.49.65-1.26,1.01-2.07.97-1.9,0-3.05-1.5-3.05-3.99-.08-1.14.29-2.26,1.01-3.14.53-.53,1.25-.82,2-.8.78-.05,1.53.3,1.99.94.23.33.38.69.47,1.08l2.43-.52ZM265.74,21.27c.09.65.13,1.3.11,1.96v7.62c.01.65-.02,1.31-.11,1.96h2.61c-.09-.65-.13-1.3-.11-1.96v-7.62c-.02-.65.02-1.31.11-1.96h-2.61ZM281.37,32.81c-.45-.95-.61-1.28-.91-2-1.18-2.82-1.43-3.19-2.34-3.48.55-.11,1.07-.38,1.48-.77.55-.6.83-1.4.78-2.21,0-1.94-1.28-3.08-3.5-3.08h-3.54c-.87,0-1.36-.01-1.96-.04.08.65.12,1.3.11,1.96v7.63c.01.66-.02,1.33-.11,1.99h2.55c-.09-.66-.13-1.33-.11-2v-2.63h1.79c.48-.03.94.16,1.26.51.44.55.77,1.18.97,1.86.31.73.55,1.48.71,2.26h2.82ZM273.82,26.18v-2.94h2.58c1.02,0,1.55.47,1.55,1.39.04.81-.58,1.51-1.39,1.55-.07,0-.13,0-.2,0h-2.54ZM293.79,24.58c-.14-.64-.42-1.24-.82-1.76-.98-1.22-2.49-1.89-4.04-1.79-1.37-.06-2.7.42-3.72,1.33-1.2,1.24-1.84,2.92-1.76,4.65-.08,1.67.5,3.31,1.6,4.57,1.05,1,2.47,1.53,3.92,1.46,1.47.09,2.9-.47,3.9-1.55.54-.68.91-1.48,1.06-2.34l-2.47-.4c-.04.45-.19.88-.44,1.26-.49.65-1.26,1.01-2.07.97-1.9,0-3.05-1.5-3.05-3.99-.08-1.14.28-2.26,1.01-3.14.53-.53,1.25-.82,2-.8.78-.05,1.53.3,1.99.94.23.33.39.7.48,1.09l2.43-.51ZM304.27,21.27c.09.68.13,1.36.11,2.04v4.94c.05.66-.12,1.33-.48,1.89-1.2,1.17-3.1,1.21-4.36.1-.42-.57-.63-1.28-.57-1.99v-4.94c-.02-.68.02-1.37.11-2.04h-2.57c.09.68.13,1.36.11,2.04v4.94c-.08,1.26.33,2.5,1.15,3.46,1.05.97,2.45,1.46,3.87,1.36,3.22,0,5.07-1.74,5.07-4.81v-4.97c-.02-.68.02-1.36.11-2.03h-2.57ZM316.11,32.81c.7,0,1.4.03,2.1.1v-2.3c-.7.08-1.4.11-2.1.1h-3.8v-7.28c-.02-.72.02-1.44.11-2.16h-2.59c.09.72.13,1.45.11,2.18v7.42c.02.66-.02,1.32-.11,1.97.53-.03,1.05-.04,1.93-.04h4.34ZM331.18,32.81c-.17-.35-.43-.98-.7-1.7l-3.12-8.36c-.2-.48-.36-.97-.48-1.48h-3.05c-.12.5-.27,1-.45,1.48l-3.09,8.36c-.2.58-.44,1.15-.72,1.7h2.81c.07-.51.2-1.02.38-1.5l.48-1.38h4.29l.48,1.38c.16.49.28.99.37,1.5h2.81ZM326.93,27.93h-3.09l1.33-4.01c.1-.28.11-.36.2-.65.11.38.17.52.21.65l1.35,4.01ZM343.39,32.81c-.45-.95-.61-1.28-.91-2-1.18-2.82-1.43-3.19-2.34-3.48.55-.11,1.07-.38,1.48-.77.55-.6.83-1.4.78-2.21,0-1.94-1.28-3.08-3.5-3.08h-3.54c-.87,0-1.36-.01-1.96-.04.08.65.12,1.3.11,1.96v7.63c.01.66-.02,1.33-.11,1.99h2.55c-.09-.66-.13-1.33-.11-2v-2.63h1.79c.48-.03.94.16,1.26.51.44.55.77,1.18.96,1.86.31.73.55,1.48.71,2.26h2.83ZM335.84,26.18v-2.94h2.58c1.02,0,1.55.47,1.55,1.39.04.81-.58,1.51-1.39,1.55-.07,0-.13,0-.2,0h-2.54ZM345.84,21.27c.09.65.13,1.3.11,1.96v7.62c.01.65-.02,1.31-.11,1.96h2.61c-.09-.65-.13-1.3-.11-1.96v-7.62c-.02-.65.02-1.31.11-1.96h-2.61ZM356.95,23.36h1.7c.72-.01,1.43.02,2.14.1v-2.28c-.71.08-1.43.11-2.14.1h-5.9c-.67,0-1.35-.02-2.01-.1v2.28c.67-.08,1.35-.11,2.03-.1h1.8v7.46c.01.66-.03,1.33-.11,1.99h2.61c-.09-.66-.12-1.32-.11-1.98v-7.46ZM369.08,32.81c-.08-.65-.12-1.3-.11-1.96v-2.71l3.26-5.28c.27-.45.75-1.16,1.06-1.59h-3.02c-.15.51-.38,1-.67,1.45l-1.83,3.18-1.82-3.19c-.28-.45-.5-.93-.67-1.43h-3.02c.34.5.7,1.02,1.06,1.59l3.26,5.26v2.72c0,.65-.04,1.31-.11,1.96h2.6Z"/><path id="_パス_34640" class="cls-1" d="M0,1.63h30.88v30.88H0V1.63Z"/></g></svg>