<?xml version="1.0" encoding="utf-8"?>
<!-- Generator: Adobe Illustrator 28.0.0, SVG Export Plug-In . SVG Version: 6.00 Build 0)  -->
<svg version="1.1" id="_レイヤー_2" xmlns="http://www.w3.org/2000/svg" xmlns:xlink="http://www.w3.org/1999/xlink" x="0px"
	 y="0px" viewBox="0 0 108.9 108.9" style="enable-background:new 0 0 108.9 108.9;" xml:space="preserve">
<style type="text/css">
	.st0{fill:#2B2B2B;}
	.st1{fill:#FFFFFF;}
</style>
<g id="_レイヤー_1-2">
	<circle class="st0" cx="54.5" cy="54.4" r="54.5"/>
	<path class="st1" d="M20.1,52.2v-5l11.4-16.3h6.9v15.9h3v5.3h-3v4.7h-6.2v-4.7C32.2,52.2,20.1,52.2,20.1,52.2z M32.6,37.7l-6,9.1h6
		V37.7z"/>
	<path class="st1" d="M46.7,33.6c1.6-2.4,4.2-3.6,7.7-3.6s6.1,1.2,7.7,3.6c1.6,2.4,2.4,5.6,2.4,9.8s-0.8,7.5-2.4,9.8
		c-1.6,2.4-4.2,3.6-7.7,3.6s-6.1-1.2-7.7-3.6c-1.6-2.4-2.4-5.7-2.4-9.8S45.1,36,46.7,33.6z M57.7,37.7c-0.5-1.3-1.6-2-3.3-2
		s-2.8,0.7-3.3,2c-0.5,1.3-0.8,3.2-0.8,5.6c0,1.6,0.1,3,0.3,4c0.2,1.1,0.6,1.9,1.2,2.6c0.6,0.7,1.5,1,2.6,1s2-0.3,2.6-1
		s1-1.5,1.2-2.6s0.3-2.4,0.3-4C58.5,40.9,58.3,39.1,57.7,37.7z"/>
	<path class="st1" d="M67.9,52.2v-5l11.4-16.3h6.9v15.9h2.9v5.3h-2.9v4.7H80v-4.7C80,52.2,67.9,52.2,67.9,52.2z M80.5,37.7l-6.1,9.1
		h6.1V37.7z"/>
	<path class="st1" d="M19.9,75.3h-3.1l-5.1-7.8v7.8H8.6V62.7h3.1l5.1,7.8v-7.8h3.1V75.3z"/>
	<path class="st1" d="M24.1,74.9c-0.8-0.4-1.4-1-1.9-1.8c-0.5-0.8-0.7-1.7-0.7-2.7s0.2-1.9,0.7-2.7s1.1-1.4,1.9-1.8s1.7-0.6,2.7-0.6
		s1.9,0.2,2.7,0.6s1.4,1,1.9,1.8s0.7,1.7,0.7,2.7s-0.2,1.9-0.7,2.7s-1.1,1.4-1.9,1.8s-1.7,0.6-2.7,0.6S24.8,75.3,24.1,74.9
		L24.1,74.9z M28.2,72.2c0.4-0.4,0.6-1.1,0.6-1.8s-0.2-1.4-0.6-1.8s-0.9-0.7-1.5-0.7s-1.1,0.2-1.5,0.6s-0.6,1.1-0.6,1.9
		s0.2,1.4,0.6,1.8s0.9,0.7,1.5,0.7S27.8,72.6,28.2,72.2L28.2,72.2z"/>
	<path class="st1" d="M39.2,72.7v2.6h-1.6c-1.1,0-2-0.3-2.6-0.8s-0.9-1.4-0.9-2.7v-4h-1.2v-2.6h1.2v-2.5h3.1v2.5h2v2.6h-2v4
		c0,0.3,0.1,0.5,0.2,0.7s0.4,0.2,0.7,0.2H39.2z"/>
	<path class="st1" d="M53,62.7v2.5h-5.2v2.7h3.8v2.4h-3.8v5.1h-3.1V62.7L53,62.7L53,62.7z"/>
	<path class="st1" d="M56.5,74.9c-0.8-0.4-1.4-1-1.8-1.8c-0.5-0.8-0.7-1.7-0.7-2.7s0.2-1.9,0.7-2.7s1.1-1.4,1.9-1.8s1.7-0.6,2.7-0.6
		s1.9,0.2,2.7,0.6s1.4,1,1.9,1.8c0.5,0.8,0.7,1.7,0.7,2.7s-0.2,1.9-0.7,2.7s-1.1,1.4-1.9,1.8s-1.7,0.6-2.7,0.6S57.3,75.3,56.5,74.9
		L56.5,74.9z M60.7,72.2c0.4-0.4,0.6-1.1,0.6-1.8s-0.2-1.4-0.6-1.8c-0.4-0.4-0.9-0.7-1.5-0.7s-1.1,0.2-1.5,0.6s-0.6,1.1-0.6,1.9
		s0.2,1.4,0.6,1.8c0.4,0.4,0.9,0.7,1.5,0.7S60.3,72.6,60.7,72.2L60.7,72.2z"/>
	<path class="st1" d="M76,65.3v10h-3.1V74c-0.3,0.4-0.7,0.8-1.3,1.1s-1.1,0.4-1.8,0.4c-0.8,0-1.4-0.2-2-0.5s-1-0.8-1.4-1.5
		C66.1,72.8,66,72,66,71.2v-5.9H69v5.4c0,0.7,0.2,1.2,0.5,1.6c0.3,0.4,0.8,0.6,1.4,0.6s1.1-0.2,1.4-0.6c0.3-0.4,0.5-0.9,0.5-1.6
		v-5.4L76,65.3L76,65.3z"/>
	<path class="st1" d="M87.1,66.3c0.7,0.8,1.1,1.8,1.1,3.1v5.9h-3.1v-5.4c0-0.7-0.2-1.2-0.5-1.6c-0.3-0.4-0.8-0.6-1.4-0.6
		s-1.1,0.2-1.4,0.6s-0.5,0.9-0.5,1.6v5.4h-3.1v-10h3.1v1.3c0.3-0.4,0.7-0.8,1.3-1.1s1.1-0.4,1.8-0.4C85.5,65.2,86.4,65.6,87.1,66.3
		L87.1,66.3z"/>
	<path class="st1" d="M90.3,67.6c0.4-0.8,0.9-1.4,1.6-1.8s1.4-0.6,2.2-0.6c0.7,0,1.3,0.1,1.8,0.4c0.6,0.3,1,0.7,1.3,1.1V62h3.1v13.3
		h-3.1v-1.4c-0.3,0.5-0.7,0.9-1.2,1.2s-1.2,0.4-1.9,0.4c-0.8,0-1.6-0.2-2.2-0.6s-1.2-1-1.6-1.8s-0.6-1.7-0.6-2.7
		S89.9,68.3,90.3,67.6L90.3,67.6z M96.6,68.5c-0.4-0.4-0.9-0.7-1.6-0.7s-1.1,0.2-1.6,0.7s-0.6,1-0.6,1.8s0.2,1.4,0.6,1.8
		c0.4,0.4,0.9,0.7,1.6,0.7s1.1-0.2,1.6-0.7c0.4-0.4,0.6-1.1,0.6-1.8S97,68.9,96.6,68.5L96.6,68.5z"/>
</g>
</svg>
