<svg viewBox="0 0 196.66 130.57" xmlns="http://www.w3.org/2000/svg" xmlns:xlink="http://www.w3.org/1999/xlink"><clipPath id="a"><path d="m0 0h196.66v130.57h-196.66z"/></clipPath><g clip-path="url(#a)"><path d="m92.27 42.94c.04.74-.22 1.46-.73 2-.54.51-1.26.77-2 .73h-54.24c-.44-.07-.84.24-.91.67-.01.08-.01.16 0 .24v17.11c-.07.44.24.84.67.91.08.01.16.01.24 0h33.67c.74-.04 1.46.22 2 .73.51.54.77 1.26.73 2v23.66c.04.74-.22 1.46-.73 2-.54.51-1.26.77-2 .73h-33.67c-.44-.07-.84.24-.91.67-.01.08-.01.16 0 .24v46.41c.04.74-.22 1.46-.73 2-.54.51-1.26.77-2 .73h-28.75c-.74.04-1.46-.22-2-.73-.51-.54-.77-1.26-.73-2v-121.95c-.04-.74.22-1.46.73-2 .54-.51 1.26-.77 2-.73h86.63c.74-.04 1.46.22 2 .73.51.54.77 1.26.73 2v23.84zm53.69 102.28c-9.95 0-18.72-1.94-26.3-5.82-7.35-3.67-13.49-9.39-17.65-16.47-4.19-7.1-6.28-15.32-6.28-24.66v-36.76c-.18-8.55 2-16.99 6.28-24.39 4.19-7.04 10.32-12.73 17.65-16.38 7.58-3.88 16.35-5.82 26.3-5.82s18.72 1.82 26.3 5.46c7.23 3.33 13.36 8.67 17.65 15.38 4.27 6.91 6.45 14.9 6.28 23.02 0 1.09-.91 1.76-2.73 2l-28.76 1.82h-.55c-1.46 0-2.18-.67-2.18-2 0-4.97-1.46-8.95-4.37-11.92s-6.79-4.46-11.65-4.46c-4.85 0-8.74 1.49-11.65 4.46s-4.37 6.95-4.37 11.92v39.13c0 4.85 1.46 8.77 4.37 11.74s6.79 4.46 11.65 4.46c4.85 0 8.74-1.49 11.65-4.46s4.37-6.89 4.37-11.74c-.04-.63.23-1.25.73-1.64.59-.39 1.31-.52 2-.36l28.76 1.46c1.82.12 2.73.73 2.73 1.82.16 8.15-2.02 16.17-6.28 23.11-4.29 6.76-10.41 12.16-17.66 15.56-7.59 3.7-16.35 5.56-26.3 5.56z" fill="#f4f4f4"/></g></svg>