<svg viewBox="0 0 240 54.01" xmlns="http://www.w3.org/2000/svg"><path d="m145.2 38.35h92.95v14.97h-92.95z" fill="#040000"/><g fill="#fff"><path d="m170.65 41h.92l5.51 7.01v-7.01h.96v8.75h-.79l-5.65-7.18v7.18h-.96v-8.75z"/><path d="m180.63 46.91c.03.34.12.65.25.91.13.27.3.49.51.67s.44.32.7.42.53.14.81.14c.45 0 .84-.08 1.16-.25s.62-.39.88-.66l.6.54c-.33.37-.7.66-1.11.88s-.93.33-1.55.33c-.44 0-.86-.08-1.25-.24s-.73-.39-1.03-.69c-.29-.3-.52-.65-.69-1.07s-.26-.88-.26-1.38c0-.47.08-.91.23-1.32s.37-.77.64-1.08c.27-.3.6-.54.98-.72s.79-.26 1.24-.26c.47 0 .9.09 1.27.27.38.18.69.42.95.73s.46.67.59 1.09.2.86.2 1.34v.14c0 .05 0 .12-.01.19h-5.13zm4.16-.79c-.02-.29-.09-.57-.19-.83s-.24-.49-.41-.69-.38-.36-.62-.47c-.25-.12-.53-.17-.84-.17-.28 0-.53.05-.78.16-.24.11-.45.26-.64.45s-.34.42-.46.69-.2.55-.23.86h4.16z"/><path d="m186.59 43.29h1.03l1.7 5.19 1.74-5.21h.8l1.75 5.21 1.7-5.19h1l-2.28 6.51h-.84l-1.74-5.1-1.75 5.1h-.85z"/><path d="m199.73 49.87c-.47 0-.94-.09-1.41-.26-.48-.17-.9-.4-1.26-.69l.49-.69c.35.27.71.47 1.09.61s.76.21 1.14.21.71-.09.96-.28c.25-.18.38-.43.38-.75v-.02c0-.16-.04-.3-.13-.41s-.21-.22-.36-.31-.32-.16-.52-.23-.4-.13-.61-.19c-.25-.08-.5-.16-.76-.24-.25-.09-.48-.2-.69-.33s-.37-.3-.5-.5-.19-.45-.19-.75v-.02c0-.27.05-.53.16-.76s.26-.43.46-.59.43-.29.7-.38.56-.13.88-.13c.4 0 .8.06 1.21.19s.78.3 1.11.52l-.44.73c-.3-.19-.61-.34-.94-.46-.33-.11-.65-.17-.97-.17-.38 0-.69.09-.91.27-.23.18-.34.4-.34.67v.02c0 .15.05.28.14.39s.21.21.37.29c.15.08.33.16.53.22.2.07.41.13.62.2.25.08.5.16.74.25.25.09.47.21.67.35s.36.31.48.51.18.45.18.74v.02c0 .31-.06.58-.18.82s-.28.44-.49.61c-.2.17-.45.29-.72.38-.28.09-.58.13-.91.13z"/><path d="m203.6 40.62h.96v9.13h-.96z"/><path d="m207.06 46.91c.03.34.12.65.25.91.13.27.3.49.51.67s.44.32.7.42.53.14.81.14c.45 0 .84-.08 1.16-.25s.62-.39.88-.66l.6.54c-.33.37-.7.66-1.11.88s-.93.33-1.55.33c-.44 0-.86-.08-1.25-.24s-.73-.39-1.03-.69c-.29-.3-.52-.65-.69-1.07s-.26-.88-.26-1.38c0-.47.08-.91.23-1.32s.37-.77.64-1.08c.27-.3.6-.54.98-.72s.79-.26 1.24-.26c.47 0 .9.09 1.27.27.38.18.69.42.95.73s.46.67.59 1.09.2.86.2 1.34v.14c0 .05 0 .12-.01.19h-5.13zm4.16-.79c-.02-.29-.09-.57-.19-.83s-.24-.49-.41-.69-.38-.36-.62-.47c-.25-.12-.53-.17-.84-.17-.28 0-.53.05-.78.16-.24.11-.45.26-.64.45s-.34.42-.46.69-.2.55-.23.86h4.16z"/><path d="m215.74 49.86c-.26 0-.5-.03-.73-.1-.22-.07-.42-.17-.58-.32s-.29-.34-.38-.57-.14-.51-.14-.84v-3.9h-.9v-.85h.9v-1.95h.96v1.95h2.05v.85h-2.05v3.77c0 .4.1.68.3.84s.46.24.79.24c.17 0 .32-.02.47-.05s.3-.09.47-.17v.83c-.17.09-.34.16-.53.21s-.4.07-.63.07z"/><path d="m220.48 49.86c-.26 0-.5-.03-.73-.1-.22-.07-.42-.17-.58-.32s-.29-.34-.38-.57-.14-.51-.14-.84v-3.9h-.9v-.85h.9v-1.95h.96v1.95h2.05v.85h-2.05v3.77c0 .4.1.68.3.84s.46.24.79.24c.17 0 .32-.02.47-.05s.3-.09.47-.17v.83c-.17.09-.34.16-.53.21s-.4.07-.63.07z"/><path d="m223.63 46.91c.03.34.12.65.25.91.13.27.3.49.51.67s.44.32.7.42.53.14.81.14c.45 0 .84-.08 1.16-.25s.62-.39.88-.66l.6.54c-.33.37-.7.66-1.11.88s-.93.33-1.55.33c-.44 0-.86-.08-1.25-.24s-.73-.39-1.03-.69c-.29-.3-.52-.65-.69-1.07s-.26-.88-.26-1.38c0-.47.08-.91.23-1.32s.37-.77.64-1.08c.27-.3.6-.54.98-.72s.79-.26 1.24-.26c.47 0 .9.09 1.27.27.38.18.69.42.95.73s.46.67.59 1.09.2.86.2 1.34v.14c0 .05 0 .12-.01.19h-5.13zm4.16-.79c-.02-.29-.09-.57-.19-.83s-.24-.49-.41-.69-.38-.36-.62-.47c-.25-.12-.53-.17-.84-.17-.28 0-.53.05-.78.16-.24.11-.45.26-.64.45s-.34.42-.46.69-.2.55-.23.86h4.16z"/><path d="m230.14 43.29h.96v1.69c.12-.27.26-.51.44-.74s.38-.42.6-.58.47-.29.74-.37.55-.12.86-.11v1.04h-.07c-.35 0-.68.06-.99.19s-.59.31-.82.56-.42.56-.55.93-.2.8-.2 1.28v2.58h-.96v-6.46z"/></g><path d="m152.29 43.15 6.76 3.12 6.76-3.12m-12.55-2.34h11.59c.53 0 .97.35.97.78v7.81c0 .43-.43.78-.97.78h-11.59c-.53 0-.97-.35-.97-.78v-7.81c0-.43.43-.78.97-.78z" fill="none" stroke="#fff" stroke-width=".87"/><path d="m49.79 26.53c.93 1.01 1.69 2.17 2.24 3.42 2.17-1.5 3.98-3.47 5.29-5.77-.07 1.05-.1 1.59-.1 2v2.75c.02 1.01-.03 2.02-.17 3.02h4.41c-.15-.96-.21-1.94-.17-2.92v-3.02c0-.41-.1-1.66-.14-2 1.34 2.33 3.15 4.35 5.33 5.93.58-1.44 1.39-2.77 2.41-3.93-2.65-1.35-4.94-3.33-6.65-5.77h2.48c1.07-.03 2.13.03 3.19.17v-4.17c-1.07.15-2.15.2-3.22.17h-3.39v-.65c-.03-.74.02-1.48.14-2.2h-4.34c.11.73.16 1.47.14 2.2v.65h-1.56c-1.05.04-2.11-.02-3.15-.17v4.14c.97-.11 1.94-.16 2.92-.14h.85c-1.67 2.43-3.83 4.49-6.34 6.04.51-.97 1.12-1.89 1.8-2.75-1.48-.84-2.78-1.96-3.83-3.29h.71c.97-.02 1.95.02 2.92.14v-4.14c-1.02.15-2.06.2-3.09.17h-1.36v-.65c-.02-.74.02-1.48.14-2.2h-4.31c.11.74.15 1.49.14 2.24v.61h-2.75c-1.09.03-2.18-.02-3.26-.17v4.17c1.05-.14 2.1-.2 3.16-.17h1.9c-1.46 2.49-3.48 4.6-5.9 6.17.95 1.09 1.72 2.33 2.27 3.66 1.95-1.48 3.55-3.36 4.68-5.53-.07.71-.1 1.46-.1 2v2.68c.02.91-.03 1.81-.17 2.71h4.38c-.14-.95-.2-1.92-.17-2.88v-3.12c0-.74-.04-1.47-.14-2.2.63 1.27 1.49 2.41 2.55 3.36l.31-.58zm4.58-23.58c-.03-.85.02-1.7.17-2.54h-4.65c.14.84.2 1.69.17 2.54h-7.63c-1.37.02-2.74-.05-4.1-.2v4.2c1.36-.15 2.73-.22 4.1-.2h4.61c-2.95 2.15-6.33 3.64-9.91 4.34.9 1.08 1.61 2.31 2.1 3.63 5.26-1.83 7.9-3.29 10.96-6.14-.07.46-.11.93-.1 1.39v2.82c0 .78-.06 1.57-.17 2.34h4.58c-.15-.78-.2-1.58-.17-2.38v-2.85c0-.31-.02-.61-.07-.92-.02-.15-.04-.29-.03-.44 1.59 1.44 3.35 2.67 5.26 3.66 2.02 1.1 4.14 1.99 6.34 2.65.53-1.4 1.25-2.73 2.14-3.93-4.58-.92-7.77-2.24-10.28-4.17h4.92c1.37-.02 2.74.05 4.1.2v-4.2c-1.36.15-2.73.22-4.1.2zm40.98 3.43v-2.48c-.01-1.17.05-2.34.2-3.49h-4.71c.14 1.16.21 2.33.2 3.49v2.48h-1.7c-1.19 0-2.38-.07-3.39-.17v4.41c1.05-.1 2.17-.17 3.36-.17h1.16c-.58 1.84-1.33 3.62-2.24 5.33-1.42 2.87-3.38 5.43-5.77 7.57 1.11 1.12 2.02 2.42 2.71 3.83 2.65-2.74 4.69-6.01 5.97-9.6q-.03.54-.1 1.46c0 .17-.07 1.97-.07 2.27v6.58c0 1.36-.06 2.72-.21 4.07h4.75c-.18-1.35-.26-2.71-.24-4.07v-7.09c-.07-1.56-.13-2.75-.2-3.56 1.22 3.37 3.06 6.48 5.42 9.16.69-1.56 1.61-3.01 2.71-4.31-3.46-3.17-6.05-7.17-7.5-11.64h2.38c1.34-.02 2.67.05 4 .2v-4.48c-1.36.16-2.73.22-4.1.2h-2.64zm-13.33 4.07c1.09 0 2.14.07 3.15.17v-4.41c-1.07.12-2.15.18-3.22.17h-.92v-2.68c-.01-1.1.05-2.2.2-3.29h-4.68c.15 1.11.22 2.24.2 3.36v2.61h-1.35c-1.31.02-2.63-.04-3.94-.2v4.47c1.27-.15 2.55-.22 3.84-.2h1.05c-1.19 3.8-3.2 7.29-5.9 10.21.98 1.31 1.78 2.75 2.38 4.27 1.87-2.27 3.28-4.87 4.17-7.67-.1 1.15-.2 3.12-.2 4.24v6.17c.03 1.43-.06 2.85-.25 4.27h4.68c-.15-1.42-.22-2.85-.2-4.27v-7.46c0-2.38-.03-3.29-.14-4.48.66 1.75 1.59 3.39 2.75 4.85.68-1.32 1.58-2.5 2.68-3.49-2.06-1.89-3.77-4.14-5.03-6.64h.71zm51.15-10.32c-1.39.55-2.85.91-4.34 1.09-4.12.64-8.28.97-12.45.98-.44.01-.88-.01-1.32-.07.2 1.95.31 3.91.31 5.87 0 1.56-.07 3.29-.2 6.24-.04 2.79-.31 5.57-.81 8.31-.38 2.1-1.09 4.12-2.1 6v-13.97c.75-1.02 1.32-1.83 1.97-2.88.2-.36.41-.71.64-1.05l-3.32-2.58c-.5 1.06-1.1 2.08-1.8 3.02-1.52 2.12-3.36 3.98-5.46 5.53.79 1.37 1.38 2.84 1.76 4.38.76-.61 1.45-1.32 2.04-2.1-.03 2.2-.03 3.46-.03 3.83v5.6c.02 1.22-.05 2.45-.2 3.66h4.51c-.07-.95-.1-1.66-.1-3.15 1.23.95 2.31 2.08 3.19 3.36 1.53-2.79 2.54-5.84 2.99-8.99.59-4.01.9-8.06.92-12.11h5.22c-.1.65-.1.68-.34 1.8h-2.55c-.69.01-1.38-.02-2.07-.1.14 1.25.2 2.51.17 3.77v11.67c.02 1.26-.04 2.52-.17 3.77h4.21v-1.26h7.29v1.26h4.24c-.14-1.4-.2-2.8-.17-4.21v-11.5c-.02-1.17.02-2.33.14-3.49-1.02.07-2 .1-3.36.1h-3.6c.17-.75.24-1.02.37-1.8h4.24c1.59 0 2.27.03 3.53.14v-4c-1.18.15-2.37.2-3.56.17h-3.66q.14-.92.31-2.38c1.8-.24 3.02-.41 6.24-.98l-2.65-3.9zm-13.8 7.26v-1.49c2.65-.14 3.46-.17 5.83-.37-.03.37-.1 1.36-.14 1.87h-5.7zm4.47 9.03h7.26v1.56h-7.26zm0 4.58h7.26v1.59h-7.26zm0 4.61h7.26v1.59h-7.26zm-12.28-25.58c-1.69 2.72-4.08 4.94-6.92 6.41.93 1.15 1.67 2.44 2.17 3.83 2.7-1.7 5.12-3.82 7.16-6.28q.81-1.02 1.12-1.36zm55.57 22.09c1.12.03 1.76.07 1.97.1-.08-.66-.11-1.33-.1-2v-3.05c0-.71.03-1.43.1-2.14-.75.07-1.76.1-3.15.1h-12.42c-1.22 0-2.1-.03-2.95-.1.08.71.11 1.42.1 2.14v2.92c.02.71-.02 1.43-.1 2.14.9-.08 1.81-.11 2.71-.1h2.38c-2.21 2.44-4.75 3.97-9.63 5.84 1.11 1.04 2.02 2.29 2.68 3.66 4.1-2.07 5.9-3.33 8.24-5.83-.07 1.15-.1 1.8-.1 2v1.66c.03.91-.03 1.82-.17 2.71h4.51c-.13-.83-.19-1.67-.17-2.51v-1.56c0-.88-.03-1.12-.1-2.2.92 1.17 2.01 2.2 3.22 3.05 1.67 1.16 3.48 2.09 5.39 2.78.61-1.4 1.31-2.76 2.1-4.07-1.59-.35-3.12-.88-4.58-1.59.7-.51 1.35-1.06 1.97-1.66.44-.41.58-.54.85-.78l-2.75-1.49zm-1.08 0c-.68.75-1.45 1.42-2.27 2-.84-.54-1.58-1.22-2.21-2zm-11.2-4.24h9.91v1.39h-9.91zm-12.21-12.11v6.04c-.79.02-1.59-.03-2.38-.14v4.07c.79-.11 1.58-.15 2.38-.14v6.99c-1.13.46-2.32.78-3.53.95l.95 4.58c.44-.2 1.09-.48 1.8-.75 2.72-.97 5.38-2.11 7.97-3.39v-4.17c-1.59.71-2.14.95-2.95 1.26v-5.46c.58 0 1.16.03 1.73.1v-4c-.57.09-1.15.12-1.73.1v-6.04h.31c.64 0 1.27.07 1.9.17v-4.25c-1 .12-2.01.17-3.02.17h-3.32c-1 0-1.99-.05-2.99-.17v4.24c.77-.12 1.56-.17 2.34-.17h.54zm7.29 1.11c.02.82-.01 1.63-.1 2.44.85-.07 1.39-.07 2.71-.07h14.76c1.39 0 1.76 0 2.65.07-.07-.75-.1-1.66-.1-2.44v-3.29c0-.83.04-1.65.14-2.48-1.22.1-2.04.14-2.75.14h-14.73c-.9 0-1.79-.04-2.68-.14.08.83.12 1.67.1 2.51zm5.63-.44h-2.04v-2.07h2.04zm5.29 0h-2.04v-2.07h2.04zm5.26 0h-2.04v-2.07h2.04zm-16.79 7.7c1.09-.14 2.19-.19 3.29-.17h15.03c1.09-.02 2.18.04 3.26.17v-3.9c-1.09.14-2.19.19-3.29.17h-14.99c-1.1.03-2.2-.03-3.29-.17v3.9zm26.9.41c-.77.04-1.54 0-2.31-.1l.41 4.1c.48-.07.78-.1 1.39-.17q2.21-.1 3.46-.2v10.18c.04 1.22-.03 2.45-.2 3.66h4.31c-.17-1.21-.24-2.44-.2-3.66v-10.52c.78-.1.95-.1 2.04-.27.14.61.17.81.34 1.53l2.92-1.29c-.71-2.51-1.63-4.96-2.75-7.33l-2.51 1.09c.54 1.36.71 1.83 1.02 2.65-1.43.14-2.24.2-3.15.24 1.05-1.36 3.02-4.14 4-5.7.6-1.09 1.28-2.13 2.04-3.12l-3.46-2c-.86 2.02-1.92 3.95-3.15 5.77q-.68-.85-1.02-1.22c.93-1.38 1.77-2.82 2.51-4.31.37-.82.78-1.61 1.26-2.38l-3.93-1.49c-.55 1.88-1.34 3.68-2.34 5.36-.44-.44-.81-.85-1.19-1.22l-1.97 3.53c1.63 1.57 3.11 3.3 4.41 5.16-.38.6-.8 1.18-1.26 1.73h-.65zm21.51 12.45v-3.94h2.68c1.12 0 2.24.06 3.36.17v-4.27c-1.12.12-2.24.18-3.36.17h-2.68v-.41c-.03-1.03.03-2.06.17-3.09h-4.65c.15 1.02.21 2.05.17 3.09v.41h-1.76c-1.17.03-2.34-.03-3.49-.17v4.27c1.16-.13 2.33-.18 3.49-.17h1.76v3.93h-3.66c-1.09 0-1.46 0-2.17-.03-.17-2.57-.49-5.13-.95-7.67l-2.71.68c.4 2.8.62 5.62.68 8.45l1.9-.51v3.19c1.29-.15 2.6-.21 3.9-.2h10.89c1.3-.02 2.61.05 3.9.2v-4.27c-1.27.15-2.55.21-3.83.17h-3.63zm4.1-25.61c-.89.11-1.78.15-2.68.14h-7.97c-1.31.03-2.63-.04-3.93-.2v4.31c.9-.11 1.81-.15 2.71-.14h.92l-2.44 1.42c1.04 1.5 2.25 2.87 3.6 4.1-1.63.87-3.34 1.55-5.12 2.03 1.02 1.16 1.86 2.46 2.51 3.87 2.16-.82 4.21-1.9 6.11-3.22 2.61 1.67 5.47 2.89 8.48 3.63.37-1.54.96-3.01 1.76-4.38-2.37-.36-4.68-1.06-6.85-2.07 1-.95 1.92-1.98 2.75-3.09.37-.51 1.36-1.97 2.68-4.04l-2.51-2.37zm-3.53 4.1c-.83 1.22-1.84 2.32-2.98 3.26-1.24-.94-2.34-2.03-3.29-3.26zm-23.27 14.01c.05 3.19-.36 6.36-1.22 9.43l3.26 1.46c.75-3.4 1.12-6.87 1.12-10.35zm32.57-7.26c2.19 1.24 4.22 2.74 6.04 4.48l2.1-3.09c.47.94.82 1.95 1.02 2.99 1.02-.17 1.39-.24 2.1-.37 0 3.63-.34 6.38-1.05 8.11-.76 1.84-2.02 3.42-3.63 4.58 1.39.79 2.58 1.88 3.49 3.19 1.96-1.68 3.43-3.86 4.24-6.31h9.57v2c.02 1.36-.05 2.72-.2 4.07h4.65c-.17-1.34-.24-2.69-.2-4.04v-11.63c.75.17 1.22.27 2.58.51.3-1.43.88-2.79 1.7-4-2.89-.25-5.73-.84-8.48-1.76 1.58-1.19 2.94-2.63 4.04-4.27h.24c1.16-.03 2.31.03 3.46.17v-4.12c-1.27.16-2.55.22-3.83.2h-5.9v-.44c-.02-.74.04-1.48.17-2.2h-4.71c.11.74.17 1.49.17 2.24v.4h-4.51c-1.24.04-2.47-.02-3.7-.2v1.56c-1.68-1.44-3.49-2.73-5.39-3.87l-2.75 3.26c2.13 1.26 4.09 2.79 5.84 4.55l2.31-2.92v1.52c.85-.12 1.72-.17 2.58-.17 1.2 1.67 2.65 3.13 4.31 4.34-2.6.92-5.32 1.47-8.07 1.63-1.72-1.44-3.57-2.71-5.53-3.8l-2.62 3.39zm15.5 4.1q0-.44.03-1.15c1.55-.44 3.05-1.03 4.48-1.76 1.25.62 2.54 1.16 3.87 1.59v1.33h-8.38zm8.37 3.66v2.1h-8.77c.1-.81.14-1.15.24-2.1h8.54zm-1.05-13.33c-.84 1.01-1.84 1.88-2.95 2.58-1.23-.63-2.31-1.51-3.19-2.58zm-17.94 11.33c-.77 3.01-1.9 5.92-3.39 8.65-.38.69-.83 1.34-1.36 1.93l3.8 3.29c1.95-3.57 3.47-7.37 4.51-11.3l-3.56-2.58z" fill="#040000"/><path d="m2.43 46.21h3.14c.55-.01 1.1.02 1.65.1v-1.35c-.55.07-1.1.11-1.65.1h-3.14v-3.36h3.88c.55-.01 1.1.02 1.65.1v-1.36c-.55.07-1.11.11-1.66.1h-3.71c-.67 0-1.1-.01-1.57-.04.08.54.12 1.08.11 1.62v7.3c.02.57-.02 1.14-.11 1.7h1.51c-.09-.57-.12-1.14-.11-1.72v-3.19zm10.55 5.1c2.01.07 3.69-1.49 3.76-3.5 0-.16 0-.32-.01-.48.19-1.98-1.26-3.75-3.25-3.94-.18-.02-.35-.02-.53-.01-2-.09-3.69 1.45-3.79 3.45 0 .17 0 .35.01.52-.19 1.99 1.26 3.76 3.25 3.96.18.02.37.02.55.01zm0-6.91c1.54 0 2.48 1.13 2.48 2.95s-.95 2.91-2.51 2.91-2.51-1.13-2.51-2.94.98-2.92 2.54-2.92zm10.46-.84c-.42-.08-.84-.12-1.26-.12-.65-.02-1.29.18-1.81.56-.26.2-.47.45-.63.73.01-.11.01-.14.03-.23v-.93h-1.34c.07.54.11 1.08.1 1.62v4.31c0 .54-.03 1.08-.1 1.62h1.44c-.07-.54-.1-1.08-.1-1.62v-2.72c.02-.51.21-1 .53-1.39.4-.52 1.02-.81 1.67-.78.38 0 .77.07 1.13.21l.36-1.25zm7.98 4.01c-.01-.37-.05-.74-.1-1.11-.13-1.79-1.64-3.15-3.43-3.09-2.14 0-3.54 1.57-3.54 3.97s1.41 3.98 3.64 3.98c.97.04 1.91-.33 2.6-1 .34-.33.6-.73.77-1.17l-1.15-.43c-.08.3-.23.57-.44.8-.44.5-1.09.78-1.76.76-.73.03-1.43-.3-1.87-.88-.38-.53-.57-1.17-.55-1.83zm-5.8-1c.04-.37.16-.72.34-1.04.37-.7 1.1-1.14 1.9-1.13.58-.02 1.15.19 1.58.59.41.43.66.99.69 1.58h-4.5zm7.09 2.46c.07.41.23.79.47 1.13.7.8 1.74 1.21 2.8 1.11 1.98 0 3.19-.88 3.19-2.32 0-.6-.29-1.17-.77-1.52-.67-.4-1.41-.66-2.18-.76-.51-.08-1-.23-1.47-.45-.28-.14-.45-.42-.45-.73 0-.69.67-1.15 1.63-1.15.51-.03 1.01.15 1.37.51.18.2.29.44.33.7l1.29-.19c-.1-.49-.36-.94-.74-1.28-.65-.5-1.45-.75-2.27-.7-.83-.06-1.64.21-2.27.76-.38.35-.6.85-.6 1.37-.01.64.32 1.24.87 1.57.62.35 1.31.58 2.02.67.55.06 1.08.23 1.56.48.28.17.43.48.41.81 0 .76-.73 1.24-1.85 1.24-.55.04-1.09-.13-1.52-.47-.27-.26-.44-.6-.47-.97l-1.35.21zm8.99-7.53c.06.52.1 1.04.1 1.57v.49h-.54c-.41.01-.83-.01-1.24-.08v1.2c.4-.06.81-.08 1.22-.08h.55v4.82c-.06.51.09 1.02.43 1.4.42.31.93.47 1.46.43.55 0 1.09-.1 1.59-.32l-.3-1.11c-.32.21-.69.33-1.07.33-.24.01-.47-.06-.66-.21-.14-.14-.19-.33-.19-.73v-4.61h.65c.46-.01.92.01 1.38.08v-1.2c-.46.07-.93.09-1.4.08h-.63v-.49c0-.52.03-1.05.1-1.56h-1.45zm18.33 1.77c-.21-.69-.59-1.32-1.11-1.83-.86-.78-1.99-1.19-3.14-1.13-1.18-.05-2.33.38-3.19 1.18-1.11 1.17-1.69 2.73-1.62 4.34-.07 1.55.47 3.06 1.5 4.22.88.85 2.07 1.31 3.3 1.25 1.38.07 2.72-.51 3.61-1.57.38-.53.66-1.12.8-1.76l-1.37-.29c-.07.49-.25.95-.54 1.35-.59.75-1.51 1.16-2.46 1.11-2.13 0-3.49-1.69-3.49-4.35s1.33-4.32 3.49-4.32c.86-.04 1.69.31 2.27.95.3.35.51.76.63 1.21zm1.86-2.74v1.37h1.52v-1.37zm.02 3.03c.07.54.11 1.08.1 1.62v4.31c0 .54-.03 1.08-.1 1.62h1.46c-.07-.54-.1-1.08-.1-1.62v-4.3c0-.55.02-1.09.1-1.63zm8.54 0c-.42-.08-.84-.12-1.26-.12-.65-.02-1.29.18-1.81.56-.26.2-.47.45-.63.73.01-.11.01-.14.03-.23v-.93h-1.34c.07.54.11 1.08.1 1.62v4.31c0 .54-.03 1.08-.1 1.62h1.44c-.07-.54-.1-1.08-.1-1.62v-2.72c.02-.51.21-1 .53-1.39.4-.52 1.02-.81 1.68-.78.38 0 .77.07 1.13.21l.36-1.24zm7.76 2.04c-.12-.33-.28-.64-.48-.92-.64-.88-1.68-1.38-2.76-1.32-2.18 0-3.61 1.59-3.61 4.01s1.44 3.94 3.67 3.94c1.05.06 2.06-.4 2.72-1.22.25-.33.44-.69.56-1.09l-1.22-.3c-.07.24-.16.47-.29.69-.39.56-1.04.89-1.73.85-1.5 0-2.44-1.13-2.44-2.9s.92-2.94 2.39-2.94c.95-.03 1.78.62 1.99 1.54l1.21-.34zm7.12-2.04c.07.54.1 1.08.1 1.62v2.69c-.12.5-.36.95-.7 1.33-.43.61-1.13.97-1.87.98-1.04 0-1.58-.62-1.58-1.83v-3.17c0-.54.03-1.08.1-1.62h-1.45c.08.53.11 1.07.1 1.61v3.38c-.03.59.11 1.17.41 1.67.53.69 1.37 1.07 2.23 1.01 1.13.04 2.2-.54 2.77-1.52-.02.2-.03.39-.03.59v.81h1.35c-.08-.54-.12-1.08-.11-1.62v-4.31c0-.54.03-1.08.11-1.62h-1.44zm3.47-3.03c.07.54.11 1.08.1 1.62v7.35c0 .54-.03 1.08-.1 1.62h1.46c-.07-.54-.1-1.08-.1-1.62v-7.35c0-.54.03-1.08.1-1.62zm8.46 10.59h1.3c-.08-.52-.12-1.05-.11-1.58v-3.82c.06-.61-.16-1.22-.59-1.66-.64-.53-1.46-.79-2.29-.71-.9-.05-1.78.21-2.5.76-.42.34-.71.8-.85 1.32l1.28.25c.07-.28.21-.53.4-.74.45-.42 1.06-.63 1.67-.58 1.17 0 1.7.44 1.7 1.37v.71c-1.14-.04-2.27.1-3.36.4-1.07.24-1.83 1.17-1.85 2.27 0 1.33.95 2.14 2.49 2.14.52 0 1.03-.08 1.51-.26.46-.17.88-.44 1.22-.78v.92zm0-2.93c.03.44-.14.87-.45 1.18-.56.56-1.32.88-2.11.89-.86 0-1.4-.45-1.4-1.17 0-.63.42-1.18 1.03-1.35.95-.3 1.94-.43 2.94-.39v.82zm8.3-4.63c-.42-.08-.84-.12-1.26-.12-.65-.02-1.29.18-1.81.56-.26.2-.47.45-.63.73.01-.11.01-.14.03-.23v-.93h-1.35c.07.54.11 1.08.1 1.62v4.31c0 .54-.03 1.08-.1 1.62h1.44c-.07-.54-.1-1.08-.1-1.62v-2.72c.02-.51.2-.99.52-1.39.4-.52 1.02-.81 1.68-.78.38 0 .77.07 1.13.21l.36-1.25zm1.25-3.03v1.37h1.52v-1.37zm.03 3.03c.07.54.11 1.08.1 1.62v4.31c0 .54-.03 1.08-.1 1.62h1.46c-.07-.54-.1-1.08-.1-1.62v-4.3c0-.55.02-1.09.1-1.63zm4.39-2.06c.06.52.1 1.04.1 1.57v.49h-.54c-.41.01-.83-.01-1.24-.08v1.2c.4-.06.81-.08 1.22-.08h.55v4.82c-.06.51.09 1.02.43 1.4.42.31.93.47 1.46.43.55 0 1.09-.1 1.59-.32l-.3-1.11c-.32.21-.69.33-1.07.33-.24.01-.47-.06-.66-.21-.14-.14-.19-.33-.19-.73v-4.61h.64c.46-.01.93.01 1.38.08v-1.2c-.46.07-.93.09-1.4.08h-.63v-.49c0-.52.03-1.05.1-1.56h-1.45zm7.3 9.29-.59 1.37c-.14.44-.54.73-1 .74-.31-.01-.62-.1-.89-.25l-.3 1.2c.4.09.8.14 1.21.15.92.08 1.79-.47 2.1-1.35l3.09-7.46c.38-.91.62-1.45.69-1.63h-1.48c-.1.52-.26 1.02-.47 1.51l-1.7 4.39-1.91-4.41c-.21-.48-.37-.98-.48-1.5h-1.55q.15.29.77 1.63l2.52 5.59z" fill="#040000"/><path d="m0 .61h31.5v31.5h-31.5z" fill="#040000"/></svg>